# xmcd
#
# Track frame offsets:
#	150
#	29992
#	53466
#	72903
#	93074
#	113126
#	135190
#	156741
#	179925
#
# Disc length: 2817 seconds
#
# Revision: 0
# Processed by: cddbd v1.5.2PL0 Copyright (c) Steve Scherf et al.
# Submitted via: dBpowerAMP V4.0
#
DISCID=7d0aff09
DTITLE=Loreena McKennitt - Nights From The Alhambra
DYEAR=1900
DGENRE=
TTITLE0=01 The Mystic's Dream
TTITLE1=02 She Moved Through The Fair
TTITLE2=03 Stolen Child
TTITLE3=04 The Mummers' Dance
TTITLE4=05 Penelope's Song
TTITLE5=06 Marco Polo
TTITLE6=07 The Bonny Swans
TTITLE7=08 Dante's Prayer
TTITLE8=09 Caravanserai
EXTD=
EXTT0=
EXTT1=
EXTT2=
EXTT3=
EXTT4=
EXTT5=
EXTT6=
EXTT7=
EXTT8=
PLAYORDER=
